<svg xmlns="http://www.w3.org/2000/svg" width="267" height="267" viewBox="0 0 267 267" fill="none">
                <rect width="266.667" height="266.667"/>
                <path d="M117.667 36.7038C88.6 45.5037 35.8 57.3704 11.9333 60.5704C8.2 60.9704 5 61.9037 5 62.4371C5 64.3037 12.6 73.9037 17 77.6371C19.9333 80.0371 22.4667 81.1037 24.2 80.5704C37.2667 77.3704 43.5333 76.3037 46.0667 77.2371C50.3333 78.8371 53.4 85.7704 52.3333 91.5037C51.2667 97.2371 39 122.837 31.6667 134.304C28.7333 139.104 26.3333 143.37 26.3333 143.904C26.3333 145.637 32.3333 146.437 50.2 147.37L67.9333 148.17L67.1333 142.97C63.1333 118.704 67.1333 93.6371 77.1333 78.9704C84.3333 68.4371 104.733 60.7037 124.2 61.2371L135 61.5037L134.6 54.9704C134.067 45.1037 131.667 34.7038 129.933 34.0371C129 33.7704 123.533 34.9704 117.667 36.7038Z" fill="red"/>
                <path d="M236.733 65.1037C231.667 65.5037 227.4 66.3037 227.133 66.5704C226.733 66.8371 227.667 70.5704 229.133 74.7037C231.267 81.1037 231.4 83.5037 230.333 88.5704C228.467 96.5704 223.133 107.104 219.4 109.637C214.2 113.37 212.067 112.304 208.067 104.037C204.6 97.1037 204.333 95.1037 204.333 81.7704C204.333 73.5037 203.8 66.7037 203 66.1704C202.333 65.6371 196.867 65.1037 191 65.1037C180.067 65.1037 171.133 66.8371 169.667 69.2371C169.133 69.9037 172.6 74.1704 177.4 78.8371C187.667 88.7037 190.867 96.5704 190.733 111.104C190.733 122.57 187 131.237 179.267 137.77C169.133 146.437 155 149.904 125.933 150.704C113.533 150.97 109.8 151.504 109 153.104C107.4 156.437 104.867 168.037 105.533 168.837C106.733 169.904 126.733 169.237 141.667 167.77C181.133 163.637 205.267 150.97 229.933 121.504C242.067 107.237 246.6 99.5037 254.6 80.0371C257.4 72.8371 260.2 66.3037 260.6 65.3704C261.4 63.6371 252.6 63.5037 236.733 65.1037Z" fill="red"/>
                <path d="M116.867 75.1038C90.6 80.3038 79.1333 96.1705 85.8 118.304C90.4667 134.17 103.533 140.57 131 140.304C144.2 140.304 148.333 139.77 154.467 137.237C170.6 130.97 178.333 121.904 178.333 109.37C178.333 92.0371 165 78.8371 144.067 75.1038C131.533 72.8371 128.333 72.8371 116.867 75.1038ZM143 89.2371C152.333 97.5038 153.933 114.17 146.2 123.104C138.733 131.504 128.733 130.437 123.133 120.57C116.6 109.104 117.533 96.8371 125.533 89.3705C131.667 83.7705 136.733 83.7705 143 89.2371Z" fill="red"/>
                <path d="M23.2667 156.304C13.8 158.837 10.0667 163.237 9.26667 172.304C8.73333 179.104 9 180.037 12.6 183.637C15.2667 186.17 19.9333 188.57 26.4667 190.57C40.7333 194.837 45.6667 197.637 47.6667 202.57C49.4 206.57 49.2667 206.97 45.8 210.037C43.6667 211.77 40.7333 213.104 39.1333 212.837C36.8667 212.57 36.3333 211.637 36.4667 207.637L36.6 202.704L28.4667 201.77C23.9333 201.37 16.8667 200.17 12.6 199.104C8.46667 198.17 5 197.637 5 198.037C5 201.104 20.2 217.904 25.6667 220.837C30.8667 223.637 47.2667 223.504 56.8667 220.57C66.6 217.77 70.3333 214.037 70.3333 207.637C70.3333 200.837 65.4 196.837 51 192.304C38.6 188.304 31.6667 182.704 31.6667 176.437C31.6667 170.837 39.5333 165.504 45.9333 166.704C49.4 167.37 49.5333 171.237 46.2 175.904C44.6 178.17 43.8 180.437 44.4667 181.104C45.1333 181.77 51 182.704 57.5333 183.237L69.4 184.17L68.4667 178.57C67.4 171.904 63.6667 164.037 60.0667 160.704C57.4 158.437 39.9333 154.304 33.2667 154.57C31.2667 154.57 26.7333 155.37 23.2667 156.304Z" fill="red"/>
                <path d="M125.265 185.201C108.999 189.468 102.465 208.001 113.399 219.468C118.332 224.801 124.199 227.201 132.465 227.201C140.599 227.201 146.599 224.801 151.265 219.734C163.665 206.134 155.532 187.468 135.799 184.134C133.665 183.734 128.865 184.268 125.265 185.201ZM139.132 194.134C145.932 201.468 140.465 216.801 131.932 214.668C127.399 213.601 123.932 206.801 124.999 200.801C126.465 191.734 133.665 188.268 139.132 194.134Z" fill="red"/>
                <path d="M107.5 217.5C107.1 216.3 103 217 101 217.5C99.6667 218.5 98.5 228.603 96.5 227.403C94 225.903 93.5 190.903 99 190.903C104.5 190.903 103.717 189.5 110.217 189C116.717 188.5 114.934 174 112.934 176C110.934 178 103 179.625 99 180.125C95 180.625 93.7169 163 94.2169 158C94.7169 153 73.4338 158.875 77.9338 160.375C82.4338 161.875 85.5 181 83 180.5C80.5 180 70 184 67.5 185C65 186 65 200 66.5 198C68 196 84.8053 185.5 82.3053 198C79.8053 210.5 85.8053 237 85.8053 237.5C85.8053 238 97 236 99 236C101 236 108 219 107.5 217.5Z" fill="red"/>
                <path d="M168.014 176.034C166.414 175.634 157.514 172.367 154.014 173.534C150.014 175.534 165.718 227.537 165.816 229.034C166.5 239.5 192 236 190 235.5C188 235 171.316 197.534 172.816 198.034C174.016 198.434 183.816 187.034 187.816 185.534C187.15 182.034 181.616 176.834 180.816 176.034C180.016 175.234 174.15 183.367 169.816 185.534C169.65 182.367 169.614 176.434 168.014 176.034Z" fill="red"/>
                <path d="M232.223 192.271C229.704 194.777 215.841 200.611 211.749 201.581L206.487 198.089L208.241 192.271C209.995 192.271 225.78 179.469 224.61 177.724C223.441 175.978 220.539 180.051 215.862 180.051C211.185 180.051 205.338 182.961 203 198.089C203 209.145 210.038 206.817 213.546 206.817C217.054 206.817 225.238 205.654 230.5 199.835C236.931 189.361 247.557 188.241 246.388 195.223C245.413 201.042 244.262 203.845 239 208.5C235.092 211.958 222.941 219.737 210.207 220.676C194.423 221.84 191.287 205.072 190.118 199.835C189.533 190.525 191.134 179.498 194.795 174.814C198.887 169.577 209.995 163.026 214.087 163.026C218.18 163.026 244.5 161.281 244.5 173.5C244.5 179.319 235.731 188.779 232.223 192.271Z" fill="red"/>
            </svg>
